<?xml version="1.0" encoding="utf-8"?>
<!-- Generator: Adobe Illustrator 21.0.2, SVG Export Plug-In . SVG Version: 6.00 Build 0)  -->
<svg version="1.1" id="Layer_1" xmlns="http://www.w3.org/2000/svg" xmlns:xlink="http://www.w3.org/1999/xlink" x="0px" y="0px"
	 viewBox="0 0 52 48" style="enable-background:new 0 0 52 48;" xml:space="preserve">
<style type="text/css">
	.st0{fill:#DDA292;}
	.st1{clip-path:url(#SVGID_2_);fill:#DDA292;}
</style>
<g>
	<g>
		<defs>
			<rect id="SVGID_1_" x="21.4" y="14.8" width="15.8" height="16.3"/>
		</defs>
		<clipPath id="SVGID_2_">
			<use xlink:href="#SVGID_1_"  style="overflow:visible;"/>
		</clipPath>
		<path class="st1" d="M36,17.9l-3.3,0.3c-0.4-1.4-1.5-2.4-2.8-2.7c-0.5-0.4-1-0.6-1.7-0.7v0h-0.4v0c-2.1,0.2-3.7,2-3.8,4.1
			l-2.7,0.2l1.7,10.4l9.6,1.6l2.3-1.1l2.3-10.5L36,17.9z M32.3,18.2l-0.7,0.1c-0.1-0.7-0.4-1.4-0.8-2C31.4,16.7,32,17.3,32.3,18.2
			L32.3,18.2z M29.8,15.9c0.7,0.6,1.2,1.4,1.3,2.4l-4.8,0.4c0.3-1.5,1.6-2.7,3.2-2.8C29.6,15.9,29.7,15.9,29.8,15.9L29.8,15.9z
			 M28.1,15.2c0.3,0,0.7,0.1,1,0.2c-1.7,0.3-3,1.6-3.2,3.3l-1.3,0.1C24.6,16.9,26.2,15.3,28.1,15.2L28.1,15.2z M32.9,30.5l-0.2,0
			l3.1-12.2l0.2,0L32.9,30.5z M32.9,30.5"/>
	</g>
</g>
</svg>
