<?xml version="1.0" encoding="utf-8"?>
<!-- Generator: Adobe Illustrator 21.0.2, SVG Export Plug-In . SVG Version: 6.00 Build 0)  -->
<svg version="1.1" id="Layer_1" xmlns="http://www.w3.org/2000/svg" xmlns:xlink="http://www.w3.org/1999/xlink" x="0px" y="0px"
	 viewBox="0 0 52 48" style="enable-background:new 0 0 52 48;" xml:space="preserve">
<style type="text/css">
	.st0{fill:#DDA292;}
	.st1{clip-path:url(#SVGID_2_);fill:#DDA292;}
</style>
<g>
	<path class="st0" d="M26,15.4c-4.4,0-8,3.6-8,8c0,4.4,3.6,8,8,8c4.4,0,8-3.6,8-8C34,19,30.4,15.4,26,15.4L26,15.4z M26,17.8
		c1.4,0,2.4,1,2.4,2.4c0,1.4-1,2.4-2.4,2.4c-1.4,0-2.4-1-2.4-2.4C23.6,18.9,24.6,17.8,26,17.8L26,17.8z M26,29.2c-2,0-3.8-1-4.8-2.6
		c0-1.6,3.2-2.5,4.8-2.5c1.6,0,4.8,0.9,4.8,2.5C29.8,28.1,28,29.2,26,29.2L26,29.2z M26,29.2"/>
</g>
</svg>
